<svg fill="#ffffff" xmlns="http://www.w3.org/2000/svg"  viewBox="0 0 100 100" width="100px" height="100px"><path d="M 2 34 A 1.0001 1.0001 0 0 0 1 35 L 1 39 A 1.0001 1.0001 0 0 0 2 40 L 27 40 C 28.111477 40 29 40.888523 29 42 C 29 43.111477 28.111477 44 27 44 L 8 44 C 4.1494768 44 1 47.149477 1 51 L 1 59 A 1.0001 1.0001 0 0 0 2 60 L 6 60 A 1.0001 1.0001 0 0 0 7 59 L 7 51 C 7 50.438271 7.4400448 50 8 50 L 27 50 C 31.402314 50 35 46.402314 35 42 C 35 37.597686 31.402314 34 27 34 L 2 34 z M 52 34 C 48.149477 34 45 37.149477 45 41 L 45 53 C 45 53.561729 44.559955 54 44 54 L 30 54 A 1.0001 1.0001 0 0 0 29 55 L 29 59 A 1.0001 1.0001 0 0 0 30 60 L 44 60 C 47.850523 60 51 56.850523 51 53 L 51 41 C 51 40.438271 51.440045 40 52 40 L 66 40 A 1.0001 1.0001 0 0 0 67 39 L 67 35 A 1.0001 1.0001 0 0 0 66 34 L 52 34 z M 70 34 A 1.0001 1.0001 0 0 0 69 35 L 69 39 A 1.0001 1.0001 0 0 0 70 40 L 91 40 C 92.111477 40 93 40.888523 93 42 C 93 43.111477 92.111477 44 91 44 L 70 44 A 1.0001 1.0001 0 0 0 69 45 L 69 49 A 1.0001 1.0001 0 0 0 70 50 L 91 50 C 92.111477 50 93 50.888523 93 52 C 93 53.111477 92.111477 54 91 54 L 70 54 A 1.0001 1.0001 0 0 0 69 55 L 69 59 A 1.0001 1.0001 0 0 0 70 60 L 91 60 C 95.402314 60 99 56.402314 99 52 C 99 50.075059 98.212803 48.380473 97.074219 47 C 98.212803 45.619527 99 43.924941 99 42 C 99 37.597686 95.402314 34 91 34 L 70 34 z M 3 36 L 27 36 C 30.317686 36 33 38.682314 33 42 C 33 45.317686 30.317686 48 27 48 L 8 48 C 6.3559552 48 5 49.353729 5 51 L 5 58 L 3 58 L 3 51 C 3 48.234523 5.2345232 46 8 46 L 27 46 C 29.196523 46 31 44.196523 31 42 C 31 39.803477 29.196523 38 27 38 L 3 38 L 3 36 z M 52 36 L 65 36 L 65 38 L 52 38 C 50.355955 38 49 39.353729 49 41 L 49 53 C 49 55.765477 46.765477 58 44 58 L 31 58 L 31 56 L 44 56 C 45.644045 56 47 54.646271 47 53 L 47 41 C 47 38.234523 49.234523 36 52 36 z M 71 36 L 91 36 C 94.317686 36 97 38.682314 97 42 C 97 43.683129 96.305256 45.191247 95.185547 46.285156 A 1.0001 1.0001 0 0 0 95.185547 47.714844 C 96.305256 48.808753 97 50.316871 97 52 C 97 55.317686 94.317686 58 91 58 L 71 58 L 71 56 L 91 56 C 93.196523 56 95 54.196523 95 52 C 95 49.803477 93.196523 48 91 48 L 71 48 L 71 46 L 91 46 C 93.196523 46 95 44.196523 95 42 C 95 39.803477 93.196523 38 91 38 L 71 38 L 71 36 z M 1.5 65 A 0.50005 0.50005 0 1 0 1.5 66 L 76.5 66 A 0.50005 0.50005 0 1 0 76.5 65 L 1.5 65 z M 84.5 65 A 0.50005 0.50005 0 1 0 84.5 66 L 93.5 66 A 0.50005 0.50005 0 1 0 93.5 65 L 84.5 65 z M 96.5 65 A 0.50005 0.50005 0 1 0 96.5 66 L 97.5 66 A 0.50005 0.50005 0 1 0 97.5 65 L 96.5 65 z"/></svg>